<svg xmlns="http://www.w3.org/2000/svg" width="24" height="24" id="design-tool"><path fill="#fff" d="M5.4 21.6c-.2 0-.4 0-.5-.1l-1.5-.9c-.3-.1-.4-.4-.5-.7-.1-.3 0-.6.1-.8l7-12.2c.3-.5 1-.7 1.5-.4l1.5.9c.5.3.7 1 .4 1.5L6.3 21c-.2.4-.5.6-.9.6zm5-14.5.4.2-7 12.2v.1l1.5.9h.1l7-12.2v-.1l-1.5-.9-.5-.2zM21.7 15.7h-2.8c-.3 0-.5-.2-.5-.5s.2-.5.5-.5h2.7c.1-.1.1-.3.1-.3v-2.7h-4.9c-.3 0-.5-.2-.5-.5s.2-.5.5-.5h4.9c.6 0 1 .5 1 1v2.7c.1.5-.3 1.3-1 1.3z"></path><path fill="#fff" d="M13.8 11.7h-2.3c-.3 0-.5-.2-.5-.5s.2-.5.5-.5h2.3c.3 0 .5.2.5.5s-.2.5-.5.5zM15.8 15.7H9.3c-.3 0-.5-.2-.5-.5s.2-.5.5-.5h6.5c.3 0 .5.2.5.5s-.2.5-.5.5zM5.6 15.7H2.3c-.7 0-1-.9-1-1.3v-2.7c0-.6.5-1 1-1h5.4c.3 0 .5.2.5.5s-.2.5-.5.5H2.3v2.7c0 .1.1.3.1.3h3.2c.3 0 .5.2.5.5s-.2.5-.5.5zM2.9 23.5c-.2 0-.4-.1-.5-.2-.1-.1-.2-.3-.2-.7l.3-2.3c.1-.6.7-1 1.3-.7l1.5.9c.3.2.5.4.5.7 0 .3-.1.6-.4.7l-2 1.3c-.2.2-.3.3-.5.3zm.5-2.9-.2 1.6 1.3-.9-1.1-.7z"></path><path fill="#fff" d="M17.7 17.8c-.2 0-.5-.1-.8-.2-.2-.1-.8-.4-4.3-8.6-.1-.3 0-.5.3-.7.3-.1.5 0 .7.3 1.9 4.4 3.5 7.8 3.9 8.2.3.1.3.1.6 0l.1-.1c.2-.1.5-.3.5-.5V16s0-.1-.1-.1c-.1-.1-.2-.4-.4-.8l-.6-1.1-.1-.1-.1-.1c0-.1-.1-.1-.1-.2L17 13s0-.1-.1-.1c-1.5-2.8-2.6-4.7-3.2-5.7-.4-.7-.9-1.5-1.4-2.3-.5-.9-1.2-2-1.7-2.7.4 1.3 1.4 3.5 1.9 4.6l.2.5c.1.3 0 .5-.3.7-.3.1-.5 0-.7-.3l-.2-.5C9.5 2.7 9 1.1 9.9.6c.8-.4 1.4.7 3.2 3.8.5.8.9 1.6 1.3 2.2.7 1 1.8 3 3.2 5.8l.5.9-.1.3.4-.2.6 1.1c.2.4.4.7.4.8.2.4.2.7.1 1.1-.2.5-.7.9-1.1 1.1h-.1c-.1.2-.3.3-.6.3z"></path><path fill="#fff" d="M19.2 20.3c-.4 0-.8-.2-1-.5l-.9-1.4c-.2-.3-.2-.6-.1-.9.1-.3.3-.5.5-.7l.9-.4c.5-.3 1.2 0 1.5.5l.7 1.4c.3.5.1 1.2-.4 1.6l-.6.4c-.2-.1-.4 0-.6 0zm-1-2.5.9 1.4c.1.1.1.1.2.1l.6-.4c.1 0 .1-.2.1-.2l-.7-1.4c0-.1-.1-.1-.1-.1l-.9.5-.4.4.3-.3z"></path><path fill="#fff" d="M21.8 23.3c-.2 0-.4-.1-.5-.3-.1-.1-.4-.2-.6-.3-.5-.2-1.2-.5-1.6-1.1-.6-.8-.5-1.6.2-2.2l.1-.1c.9-.5 1.7-.5 2.2.1.9 1 .7 3.3.7 3.5 0 .2-.2.4-.5.4zM19.9 20c-.2.2-.4.4 0 .9.3.4.7.6 1.2.8.1 0 .2.1.2.1 0-.7-.1-1.5-.4-1.8-.3-.2-.6-.2-1 0z"></path></svg>