<?xml version="1.0" encoding="utf-8"?><svg viewBox="0 0 2000 2000" xmlns="http://www.w3.org/2000/svg" xmlns:xlink="http://www.w3.org/1999/xlink"><style>:root>svg{display:none}:root>svg:target{display:block}</style><svg fill="none" viewBox="0 0 124 141.53" id="css" xmlns="http://www.w3.org/2000/svg"><path d="M10.383 126.892 0 0l124 .255-10.979 126.637-50.553 14.638z" fill="#1b73ba"/><path d="M62.468 129.275V12.085l51.064.17-9.106 104.85z" fill="#1c88c7"/><path d="M100.851 27.064H22.298l2.128 15.318h37.276l-36.68 15.745 2.127 14.808h54.043l-1.958 20.68-18.298 3.575-16.595-4.255-1.277-11.745H27.83l2.042 24.426 32.681 9.106 31.32-9.957 4-47.745H64.765l36.085-14.978z" fill="#fff"/></svg><svg viewBox="0 0 512 512" id="dashboard" xmlns="http://www.w3.org/2000/svg"><path fill="#fff" d="M256 64C132.288 64 32 164.226 32 287.938c0 56.975 21.283 108.97 56.316 148.5 3.551 4.006 7.241 7.82 11.066 11.562 3.059-3.49 6.232-6.834 9.539-10.141.48-.48.972-.947 1.456-1.422 18.78-18.426 40.521-32.949 64.664-43.161 25.633-10.842 52.871-16.339 80.958-16.339s55.325 5.497 80.958 16.339c24.144 10.212 45.884 24.735 64.664 43.161.484.475.976.941 1.456 1.422 3.307 3.307 6.48 6.65 9.539 10.141 3.825-3.742 7.516-7.557 11.066-11.562 35.033-39.53 56.316-91.525 56.316-148.5C480 164.226 379.712 64 256 64zm191.661 305.177c-8.663 20.481-20.429 39.092-35.044 55.776-40.39-39.51-95.653-63.945-156.617-63.945s-116.228 24.33-156.617 63.84c-14.615-16.685-26.381-35.172-35.044-55.653a206.047 206.047 0 0 1-16.173-72.694H79.5v-16H48.166c.945-25 6.363-50.048 16.173-73.239 9.372-22.157 22.376-42.431 38.692-60.11l26.932 26.893 5.496-5.538 5.277-5.264-.02-.027.547-.552-26.951-26.984c17.862-16.647 38.004-29.894 60.479-39.4a206.128 206.128 0 0 1 72.708-16.174V117.5h16V80.104c26 .945 50.017 6.363 73.208 16.173 22.437 9.49 42.921 22.706 60.762 39.312l-26.975 27.069.577.547-.004.019 5.285 5.246 5.5 5.503 27.026-27.057c16.356 17.703 29.392 38.148 38.78 60.345 9.81 23.191 15.229 48.239 16.174 73.239H431.5v16h32.334a205.96 205.96 0 0 1-16.173 72.677z"/><path fill="#fff" d="m368.479 174.545-85.484 73.727a47.72 47.72 0 0 0-26.994-8.334c-26.467 0-48 21.533-48 48 0 10.479 3.385 20.178 9.106 28.08l-11.948 11.948 11.312 11.313 12.033-12.033c7.795 5.469 17.273 8.691 27.496 8.691 26.467 0 48-21.533 48-48 0-10.387-3.327-20.005-8.956-27.868l74.849-84.11-1.414-1.414zM256 319.938c-17.673 0-32-14.326-32-32 0-17.673 14.327-32 32-32s32 14.327 32 32c0 17.673-14.327 32-32 32z"/></svg><svg viewBox="0 0 24 24" id="design-tool" xmlns="http://www.w3.org/2000/svg"><path fill="#fff" d="M5.4 21.6c-.2 0-.4 0-.5-.1l-1.5-.9c-.3-.1-.4-.4-.5-.7-.1-.3 0-.6.1-.8l7-12.2c.3-.5 1-.7 1.5-.4l1.5.9c.5.3.7 1 .4 1.5L6.3 21c-.2.4-.5.6-.9.6zm5-14.5.4.2-7 12.2v.1l1.5.9h.1l7-12.2v-.1l-1.5-.9-.5-.2zm11.3 8.6h-2.8c-.3 0-.5-.2-.5-.5s.2-.5.5-.5h2.7c.1-.1.1-.3.1-.3v-2.7h-4.9c-.3 0-.5-.2-.5-.5s.2-.5.5-.5h4.9c.6 0 1 .5 1 1v2.7c.1.5-.3 1.3-1 1.3z"/><path fill="#fff" d="M13.8 11.7h-2.3c-.3 0-.5-.2-.5-.5s.2-.5.5-.5h2.3c.3 0 .5.2.5.5s-.2.5-.5.5zm2 4H9.3c-.3 0-.5-.2-.5-.5s.2-.5.5-.5h6.5c.3 0 .5.2.5.5s-.2.5-.5.5zm-10.2 0H2.3c-.7 0-1-.9-1-1.3v-2.7c0-.6.5-1 1-1h5.4c.3 0 .5.2.5.5s-.2.5-.5.5H2.3v2.7c0 .1.1.3.1.3h3.2c.3 0 .5.2.5.5s-.2.5-.5.5zm-2.7 7.8c-.2 0-.4-.1-.5-.2-.1-.1-.2-.3-.2-.7l.3-2.3c.1-.6.7-1 1.3-.7l1.5.9c.3.2.5.4.5.7 0 .3-.1.6-.4.7l-2 1.3c-.2.2-.3.3-.5.3zm.5-2.9-.2 1.6 1.3-.9-1.1-.7z"/><path fill="#fff" d="M17.7 17.8c-.2 0-.5-.1-.8-.2-.2-.1-.8-.4-4.3-8.6-.1-.3 0-.5.3-.7.3-.1.5 0 .7.3 1.9 4.4 3.5 7.8 3.9 8.2.3.1.3.1.6 0l.1-.1c.2-.1.5-.3.5-.5V16s0-.1-.1-.1c-.1-.1-.2-.4-.4-.8l-.6-1.1-.1-.1-.1-.1c0-.1-.1-.1-.1-.2L17 13s0-.1-.1-.1c-1.5-2.8-2.6-4.7-3.2-5.7-.4-.7-.9-1.5-1.4-2.3-.5-.9-1.2-2-1.7-2.7.4 1.3 1.4 3.5 1.9 4.6l.2.5c.1.3 0 .5-.3.7-.3.1-.5 0-.7-.3l-.2-.5C9.5 2.7 9 1.1 9.9.6c.8-.4 1.4.7 3.2 3.8.5.8.9 1.6 1.3 2.2.7 1 1.8 3 3.2 5.8l.5.9-.1.3.4-.2.6 1.1c.2.4.4.7.4.8.2.4.2.7.1 1.1-.2.5-.7.9-1.1 1.1h-.1c-.1.2-.3.3-.6.3z"/><path fill="#fff" d="M19.2 20.3c-.4 0-.8-.2-1-.5l-.9-1.4c-.2-.3-.2-.6-.1-.9.1-.3.3-.5.5-.7l.9-.4c.5-.3 1.2 0 1.5.5l.7 1.4c.3.5.1 1.2-.4 1.6l-.6.4c-.2-.1-.4 0-.6 0zm-1-2.5.9 1.4c.1.1.1.1.2.1l.6-.4c.1 0 .1-.2.1-.2l-.7-1.4c0-.1-.1-.1-.1-.1l-.9.5-.4.4.3-.3z"/><path fill="#fff" d="M21.8 23.3c-.2 0-.4-.1-.5-.3-.1-.1-.4-.2-.6-.3-.5-.2-1.2-.5-1.6-1.1-.6-.8-.5-1.6.2-2.2l.1-.1c.9-.5 1.7-.5 2.2.1.9 1 .7 3.3.7 3.5 0 .2-.2.4-.5.4zM19.9 20c-.2.2-.4.4 0 .9.3.4.7.6 1.2.8.1 0 .2.1.2.1 0-.7-.1-1.5-.4-1.8-.3-.2-.6-.2-1 0z"/></svg><svg viewBox="0 0 512 512" id="email" xmlns="http://www.w3.org/2000/svg"><path fill="#ffc970" d="M5 128h452v304H5z"/><path fill="#ffb233" d="M430.7 432 231 197.1 31.3 432z"/><path fill="#ffc970" d="m231 228 181 204H50z"/><path fill="#ffb233" d="M231 358 5 154v-26h452v26z"/><path fill="#ffdca3" d="M231 332 5 128h452z"/><path fill="#ffb233" d="M347 150c0 49.7 40.3 90 90 90 6.9 0 13.6-.8 20-2.2V128H349.7c-1.8 7-2.7 14.4-2.7 22z"/><path fill="#ffc970" d="M349.7 128c-1.8 7-2.7 14.4-2.7 22 0 22.1 8 42.4 21.3 58.1L457 128H349.7z"/><circle cx="437" cy="150" r="70" fill="#d84861"/><path fill="#c12944" d="M472.4 89.6c6.1 10.4 9.6 22.5 9.6 35.4 0 38.7-31.3 70-70 70-12.9 0-25-3.5-35.4-9.6 12.2 20.7 34.6 34.6 60.4 34.6 38.7 0 70-31.3 70-70 0-25.7-13.9-48.2-34.6-60.4z"/><circle cx="412" cy="125" r="35" fill="#e17084"/><path fill="#ffc970" d="M437 205c-30.3 0-55-24.7-55-55 0-14.9 5.8-28.8 16.5-39.2 10.6-10.4 24.6-16 39.5-15.8 14.7.3 28.5 6.3 38.7 17.1 10.3 10.8 15.7 24.9 15.2 39.7-.4 12.9-5.3 25.3-13.8 34.8-4.2 4.7-10.6 6.3-16.5 4-5.9-2.2-9.7-7.7-9.7-14V175h-15c-13.8 0-25-11.2-25-25s11.2-25 25-25 25 11.2 25 25v26.6c0 3.2 2.5 4.4 3.2 4.7.8.3 3.4 1 5.5-1.3 6.9-7.8 10.9-17.9 11.3-28.5.4-12.1-4.1-23.6-12.5-32.5-8.4-8.8-19.7-13.8-31.7-14-12.2-.2-23.7 4.4-32.3 12.9-8.7 8.5-13.5 19.9-13.5 32.1 0 24.8 20.2 45 45 45v10zm0-70c-8.3 0-15 6.7-15 15s6.7 15 15 15h15v-15c0-8.3-6.7-15-15-15z"/></svg><svg viewBox="0 0 24 24" id="figma" xmlns="http://www.w3.org/2000/svg"><path fill="#0ACF83" d="M8 24c2.208 0 4-1.792 4-4v-4H8c-2.208 0-4 1.792-4 4s1.792 4 4 4z"/><path fill="#A259FF" d="M4 12c0-2.208 1.792-4 4-4h4v8H8c-2.208 0-4-1.792-4-4z"/><path fill="#F24E1E" d="M4 4c0-2.208 1.792-4 4-4h4v8H8C5.792 8 4 6.208 4 4z"/><path fill="#FF7262" d="M12 0h4c2.208 0 4 1.792 4 4s-1.792 4-4 4h-4V0z"/><path fill="#1ABCFE" d="M20 12c0 2.208-1.792 4-4 4s-4-1.792-4-4 1.792-4 4-4 4 1.792 4 4z"/></svg><svg viewBox="0 0 256 256" preserveAspectRatio="xMinYMin meet" id="git" xmlns="http://www.w3.org/2000/svg"><path d="M251.172 116.594 139.4 4.828c-6.433-6.437-16.873-6.437-23.314 0l-23.21 23.21 29.443 29.443c6.842-2.312 14.688-.761 20.142 4.693 5.48 5.489 7.02 13.402 4.652 20.266l28.375 28.376c6.865-2.365 14.786-.835 20.269 4.657 7.663 7.66 7.663 20.075 0 27.74-7.665 7.666-20.08 7.666-27.749 0-5.764-5.77-7.188-14.235-4.27-21.336l-26.462-26.462-.003 69.637a19.82 19.82 0 0 1 5.188 3.71c7.663 7.66 7.663 20.076 0 27.747-7.665 7.662-20.086 7.662-27.74 0-7.663-7.671-7.663-20.086 0-27.746a19.654 19.654 0 0 1 6.421-4.281V94.196a19.378 19.378 0 0 1-6.421-4.281c-5.806-5.798-7.202-14.317-4.227-21.446L81.47 39.442 4.83 116.077c-6.44 6.443-6.44 16.884 0 23.322l111.774 111.768c6.435 6.438 16.873 6.438 23.316 0l111.251-111.249c6.438-6.44 6.438-16.887 0-23.324" fill="#DE4C36"/></svg><svg viewBox="0 0 16 16" id="github" xmlns="http://www.w3.org/2000/svg"><path fill="#fff" d="M7.999 0C3.582 0 0 3.596 0 8.032a8.031 8.031 0 0 0 5.472 7.621c.4.074.546-.174.546-.387 0-.191-.007-.696-.011-1.366-2.225.485-2.695-1.077-2.695-1.077-.363-.928-.888-1.175-.888-1.175-.727-.498.054-.488.054-.488.803.057 1.225.828 1.225.828.714 1.227 1.873.873 2.329.667.072-.519.279-.873.508-1.074-1.776-.203-3.644-.892-3.644-3.969 0-.877.312-1.594.824-2.156-.083-.203-.357-1.02.078-2.125 0 0 .672-.216 2.2.823a7.633 7.633 0 0 1 2.003-.27 7.65 7.65 0 0 1 2.003.271c1.527-1.039 2.198-.823 2.198-.823.436 1.106.162 1.922.08 2.125.513.562.822 1.279.822 2.156 0 3.085-1.87 3.764-3.652 3.963.287.248.543.738.543 1.487 0 1.074-.01 1.94-.01 2.203 0 .215.144.465.55.386A8.032 8.032 0 0 0 16 8.032C16 3.596 12.418 0 7.999 0z"/></svg><svg viewBox="-2.138 -2.29 314.9 359.304" id="gsap" xmlns="http://www.w3.org/2000/svg"><path d="M48.173 155.568c-10.389 4.887-37.886 26.886-43.182 33.404-5.5 6.518-7.129-3.666-1.426-20.572 4.48-13.647 15.888-32.183 35.034-48.07 11.202-9.166 35.849-22.405 50.921-30.146 3.056-1.63 42.571-18.332 77.809-26.683 3.056-.815-3.666 5.092-4.685 8.351-5.296 15.48-111.01 81.882-111.01 81.882zm148.894 186.78c1.833 10.999.204 11.814-11.202 13.24-11.407 1.426-19.758-2.852-22.813-5.703-3.056-2.853-3.666-9.166-.611-14.869 1.834-3.667 3.667-4.889 4.686-9.37 1.018-4.277 1.833-5.296 2.647-6.925.814-1.427 1.019-2.853 1.222-12.833.204-9.98 0-28.72 1.019-36.663 1.019-8.147 36.257 3.666 36.257 3.666s-8.352 20.776-10.592 25.868c-2.241 5.093-2.037 14.869-2.037 16.906s-.814 6.11-1.426 6.314c-.611.203 2.037 5.499.814 8.555-.815 2.852 1.833 10.185 2.036 11.814zm13.444-311.437c-1.223-7.74 0-23.018 1.629-25.461 5.093-6.926 31.979-7.74 37.683.407 2.444 3.666 2.24 12.221 1.833 17.721-.407 5.499-1.833 17.313-2.037 21.184-.203 2.852-29.738 7.332-36.256-.408-1.834-2.036-2.852-13.443-2.852-13.443zm59.884 291.679c12.425 8.963 21.998 10.592 28.312 13.851 6.314 3.26 4.685 9.574-5.907 11.407-8.555 1.629-21.998-1.63-30.96-1.63s-28.924 1.019-34.22-2.647c-6.11-4.277-3.463-12.222-3.463-12.222 1.63-4.48 5.703-14.462 4.481-22.609s-2.852-12.628-5.907-20.165c-3.055-7.536-5.295-26.071-2.443-27.09s2.036 0 5.703.814c3.666.814 7.74 2.037 15.684 2.037s16.702-1.223 19.758-1.833c3.055-.611 5.499-1.223 4.48 5.092-1.018 6.314-4.073 18.128-4.277 27.294-.203 9.166-.203 19.758.408 21.591.61 1.833 5.092 3.87 8.351 6.11z" fill="#010101"/><path d="M226.806 51.28c-22.405 19.351-65.791 24.646-130.155 49.496-16.499 6.314-60.495 25.257-71.087 45.015 35.645-20.572 48.885 7.74 51.736 36.867 2.647 27.294 16.295 41.553 51.329 40.737 36.053-.814 47.052 20.165 57.032 44.812 19.35-94.308 50.311-112.639 70.271-128.73 42.368-34.424-9.776-95.123-29.126-88.197z" fill="#8ac640"/><path d="M226.806 51.28C173.033 70.019 119.87 74.704 57.339 113.201c-14.869 9.166-46.237 29.941-52.348 69.661 22.812-25.258 75.567-57.032 140.136-77.197 32.59-10.185 56.422-16.906 85.345-28.109-2.036-13.037-2.036-18.129-3.666-26.276z" fill="#8ac640"/><path d="M295.448 162.9s-3.87 13.24-11.61 17.518c0 0-5.703 2.037-17.109-4.277-3.259-1.833-5.703-8.147-5.5-10.185.204-4.889 3.259-7.129 3.259-7.129s3.26-5.5 7.129-5.296c3.871.203 10.389.814 12.426-1.019 1.832-2.037 11.813 3.666 11.405 10.388zM212.344 34.781s-.814 10.389-2.24 16.906c-.204 1.223-6.314 1.833-10.796 3.667 8.555 24.442 60.088 24.238 66.81 12.221-3.259-2.24-9.777-5.703-12.832-6.925-3.056-1.223-2.852-1.019-3.056-6.722-.203-5.704-.611-16.295-1.019-19.147-.407-2.852-31.979-2.852-36.867 0z" fill="#010101"/><path d="M214.381 34.781s0 5.907-.611 11.61c-.203 2.648-.407 4.277-.814 6.314-.204 1.223 6.925 6.11 8.962 16.906 9.777 21.794 32.387 10.999 41.756.611-3.259-2.241-8.555-5.296-14.665-7.74-3.056-1.223-1.63-3.87-1.833-9.573-.204-5.703-1.019-14.055-1.426-17.11-.409-3.055-26.48-3.87-31.369-1.018z" fill="#f0efef"/><g fill="#010101"><path d="M212.344 34.781s-.204 3.667-.814 7.944c2.647 2.647 6.11 6.314 8.759 8.555 1.833 1.63 6.313 1.426 10.388 1.426 3.666 0 6.925.407 8.351-.407 3.26-1.63 7.944-5.703 10.592-8.759-.203-3.666-.407-7.129-.61-8.759-.206-2.852-31.778-2.852-36.666 0z"/><path d="M230.88 50.261c-2.445 0-5.297-.203-7.537-.611-1.019-.203-2.037-.814-2.852-1.222-1.426-1.019-2.852-2.24-4.48-3.463-3.26-2.444-3.463-3.87-3.463-4.48 1.426-12.833-.408-23.628-.408-23.628s-1.426-5.5 6.314-6.926 12.425-1.629 12.425-1.629 4.889 0 12.425 1.629c7.74 1.426 6.314 6.926 6.314 6.926s-1.833 10.795-.407 23.628c0 .61-.203 2.036-3.463 4.48-2.852 2.037-5.092 4.277-7.332 4.685-2.241.408-5.093.611-7.536.611z"/><path d="M230.88 3.006c-13.443 0-16.092 3.666-19.962 7.74-.814 1.018-.204 7.129 1.223 20.165h1.833s-1.223-3.667-1.019-7.944 1.019-4.073.407-5.092c-.814-1.223-2.444-3.26 1.223-5.296 3.666-2.037 9.369 1.629 16.295 1.833 6.925-.204 12.832-3.87 16.498-1.833 3.666 2.036 2.037 4.073 1.223 5.296-.815 1.222.203.814.407 5.092.203 4.277-1.019 7.944-1.019 7.944h1.833c1.222-13.036 2.037-18.739 1.426-19.758-3.463-4.481-6.925-7.944-20.368-8.147zm64.568 160.505s-3.87 12.425-11.406 16.702c-1.63-.814-1.426-2.036-2.852-3.87-.408-.61-1.834-1.019-2.444-1.629-.611-.611-.407-1.63-1.426-2.444-.815-.815-1.426-.204-2.241-.815-.814-.814-1.019-1.833-1.629-2.443-.408-.408-2.037-.611-2.444-1.019-1.019-1.019-9.98-2.852-9.573-4.889.814-3.056 2.444-5.296 2.444-5.296s3.87-5.703 7.739-5.5c3.87.204 7.537 1.019 9.574-.814 2.241-2.038 14.87 5.499 14.258 12.017z"/><path d="M268.969 73.482s12.832-3.056 21.591 5.296c8.759 8.555 8.147 19.146 5.5 25.664 2.24 2.648 6.314 9.98 3.259 18.739 13.443 11.406 7.536 28.924-4.481 40.534 0 0-2.852-10.592-14.258-11.203.407-4.073-10.592-7.333-5.5-17.925-7.74-1.833-7.536-7.129-8.758-13.646-1.019-6.519 2.647-47.459 2.647-47.459z"/></g><path d="M264.284 79.185s14.869-7.536 23.628 1.019c8.758 8.555 6.313 17.924 3.666 24.442 2.24 2.647 7.536 10.185 4.277 19.146-.611 2.037-5.092 2.037-8.352 7.333 8.147-4.686 13.24-3.463 15.073 2.443 2.852 9.166-3.463 20.165-8.962 26.276 0-.204-.204-.408-.204-.611-.814 3.056-1.833 8.962-7.943 15.48-3.056 3.259-5.5 2.852-8.963 2.037-4.073-1.019-5.499-2.853-11.202-5.907-3.259-1.833-1.426-4.074-1.426-5.907 0-.407.407-1.019 1.019-1.833.407-1.019 1.629-2.647 3.462-4.481 0 0 2.648-3.666 6.519-3.463 3.87.204 7.943-.61 8.962-1.629 0-7.129-8.147-7.333-5.296-19.554.204-.611 1.223-1.63 4.481-2.037-4.889-1.019-7.129-1.223-10.592-4.481-2.444-2.24-4.277-5.092-4.889-8.758-1.221-6.314-3.258-39.515-3.258-39.515z" fill="#f0efef"/><path d="M221.306 66.353c-1.222-1.63-7.536-9.777-19.554-13.036-3.463-1.019-5.703 1.833-9.165 3.87-1.019-.611-5.5-2.648-7.944-1.223s-4.073 2.852-6.518 3.87c-1.223-.611-4.481-.611-7.129.407-2.648.815-6.722 2.648-10.592 7.944-2.444 8.759 43.181 2.24 43.181 2.24z" fill="#010101"/><path d="M221.714 66.353c-6.519-2.241-5.5-9.777-19.962-10.999-2.852-.204-4.685 2.036-6.722 3.462 1.019 1.019 2.037 2.648 2.648 4.277-1.833-2.036-5.092-4.685-8.352-5.296-3.055-.61-5.092 1.63-8.351 3.26.61.61 1.222 1.629 2.036 2.852-2.852-1.833-4.888-2.444-8.758-1.019-2.648.814-7.74 3.055-11.61 8.555-2.444 8.759 41.145-1.019 41.145-1.019z" fill="#8ac640"/><path d="M260.007 69.612s0-2.241-.204-4.277c0-.407-1.629-1.426-1.629-1.833l-.407-.408s3.259-1.833 5.703-.814c2.647.814 4.073 4.277 4.073 4.277 4.685-1.629 5.092.204 7.333 2.648 4.889-1.019 5.499.814 8.555 5.296 0 0-3.666-.611-10.795.61-6.926 1.018-12.629-5.703-12.629-5.499z" fill="#010101"/><path d="M259.192 68.593s1.222-1.019.814-1.223c2.24-1.222 5.296-2.647 6.722 1.223 4.685-1.63 5.296.611 7.536 3.056 5.703-2.648 6.11.61 6.518 2.036-1.833 0-4.48.204-8.147.611-6.925 1.019-13.647-5.907-13.443-5.703z" fill="#8ac640"/><path d="M189.939 63.501s11.61 4.073 21.387 3.462c9.777-.814 26.479-1.629 35.441 3.667 0 0 9.166-3.26 17.721-1.019 8.556 2.24 24.239 16.906 19.555 32.386-.408 1.019-3.056 2.648-6.111 3.667 0 0 1.63 6.925-1.222 12.628-2.852 5.5-9.166 16.092-9.37 30.757-.203 2.444-.61 7.536-1.018 9.98-15.888-.61-40.33-6.518-64.365-6.11.203-2.647.407-4.277.611-6.925h.61c-1.222-6.722-1.629-10.185-2.852-15.277-7.74-4.888-15.888-10.591-22.812-21.387-6.722-10.796 12.425-45.829 12.425-45.829zm78.623 109.991s12.629 45.219-2.24 64.162c0 0 2.24 8.758-2.852 18.128-.815 4.073-1.834 7.74-2.444 11.813-2.648 16.906-7.13 24.035-8.352 51.125l-12.222-.203s-1.426-19.554-5.703-29.942c-2.443-5.906-12.018-13.851-11.609-21.794.407-6.111 1.629-11.203 12.018-19.351.814-11.813-11-23.017-9.166-67.013z" fill="#010101"/><path d="M264.896 171.658c3.259 20.776 10.795 51.533-2.852 66.605a30.712 30.712 0 0 1 .203 11.61c-.407 2.444-1.222 5.092-2.24 7.943-2.037 4.889-2.852 12.018-3.463 16.295-2.648 16.906-2.648 17.722-3.87 44.812l-12.222-.204s-1.426-19.554-5.703-29.941c-2.443-5.907-7.536-10.999-7.943-18.943-.407-6.11 3.87-18.331 14.055-17.924-.611-24.646-12.018-19.758-15.073-71.087zM189.939 63.501s4.481 1.426 9.369 1.833c4.889.407 10.185 0 14.869-.204 9.777-.814 23.628-1.833 32.794 3.463 0 0 5.092-1.63 10.592-1.223 2.444.204 4.889 2.241 7.74 3.056 8.962 2.24 17.517 17.109 13.646 30.553-.407 1.019-3.259 0-6.518 1.019.61 2.852 1.019 9.37-2.241 16.295-3.462 6.926-7.943 15.888-7.129 32.998-21.387-1.019-30.96-2.444-52.144-3.463-1.833-7.537-3.056-15.073-3.259-18.943 2.852-1.426 4.48-2.647 6.722-5.092-6.11 1.019-8.555.611-12.222-1.426-3.666-2.037-10.184-8.555-13.443-12.832-.407-.408-2.647 6.313-7.739 6.518-1.834-2.648 5.906-10.185 4.48-13.036-5.091-10.389 4.483-39.516 4.483-39.516z" fill="#f0efef"/><path d="M266.524 154.752s.407 7.333.407 9.166c0 2.037 1.63 8.147 1.833 10.999-2.24 3.87-12.017 12.629-29.738 15.888-17.517 3.666-40.737-23.831-40.737-23.831.611-2.648 2.648-10.389 4.074-14.462.204-.407.611-1.426.611-1.833 1.834-2.648 63.55 4.073 63.55 4.073z" fill="#010101"/><path d="M262.044 155.364c0 5.092.814 8.759 1.426 12.018 1.018 5.907 2.647 9.777 2.647 13.647 0 11.813-15.48 9.776-28.517 10.184-17.517 3.667-32.386-23.831-32.386-23.831 1.222-4.685 2.037-9.98 3.87-14.462.203-2.444.611-5.499.814-6.925 24.85 0 42.367 1.426 52.552 2.443.408 2.241.001 6.111-.406 6.926z" fill="#f0efef"/><path d="M242.489 181.639s-10.795-24.035-43.182-16.905c-7.739 21.794-18.128 46.848-11.406 73.938-6.722 9.166-14.462 14.259-14.462 31.164 0 16.906.815 19.758.815 19.758l23.831 1.223s7.74-9.98 10.795-20.776c.815-3.056 1.63-8.555 1.019-14.869.814-1.222 4.277-4.073 4.685-9.573 0 0 11.61-6.11 18.332-20.979 6.315-13.446 4.685-25.056 9.573-42.981z" fill="#010101"/><path d="M242.489 181.639c-.61-2.24-8.758-24.238-38.904-17.721-17.72 47.256-11.202 66.81-8.555 75.364-12.018 15.276-17.517 18.535-15.072 49.496h15.888c7.332-11.61 8.962-15.888 9.369-31.164 0-.611-2.24 1.222-3.87 3.259 1.223-6.314 4.685-7.536 7.333-11.406 1.222-1.63 2.24-4.074 2.24-7.333 14.258-9.573 19.554-21.591 22.609-34.016 2.445-8.554 5.296-22.609 8.962-26.479z" fill="#f0efef"/><g fill="#010101"><path d="M192.179 148.846s5.5.203 10.389 1.833c4.685 1.629 4.685 2.647 6.518 4.685s6.314 5.092 5.5 8.147c-.408 1.63-1.426 2.037-2.852 3.463-.611.611-5.093 5.499-6.111 6.11-.611.407-1.426 1.019-2.037 1.426l-3.055 2.037c-2.037 1.019-3.463 1.63-5.703 1.426 0 0-5.092-.204-8.352-3.666 0 0-.407-1.63.408-2.444 0 0-4.278-3.667-5.5-6.111-1.223-2.443-1.223-5.906-.407-7.739.407-1.835 8.35-6.927 11.202-9.167zm5.093 198.187-.611 5.093s-1.833 2.24-15.48 2.037c-13.851-.204-17.517-4.481-18.739-6.722l-.814-5.296s2.648-3.87 3.259-3.87c4.481.407 19.758 6.518 30.35 8.147 1.016 0 1.219.407 2.035.611zm29.534-10.388c0 2.24-.204 2.24-.204 4.481 2.444 1.833 8.556 2.852 20.165 2.647 16.906-.407 32.59 5.093 51.736 1.833l.204-3.666-1.833-.203-67.828-5.5z"/><path d="M241.675 343.774h5.092c11-.407 21.388 2.037 32.59 2.648 5.907-.204 13.24-1.63 12.629-5.907l-57.847-4.889c-3.463 3.87-.816 7.129 7.536 8.148zm-66.402-85.752c1.833 1.222 14.258 8.555 34.423 7.536-.408 3.87-.204 11.407-9.166 24.646-4.481 6.518-8.352 17.925-9.166 32.387.204 3.259 2.037 6.11-.407 10.388.814 2.647 4.073 7.943 5.703 11.202 1.629 3.26 2.444 6.926-8.352 7.13-10.999.203-28.72-1.019-26.275-9.573 1.223-4.481 4.685-9.166 5.093-11 .407-1.833.407-7.332 3.869-10.999 3.056-10.184 2.037-19.961 1.427-29.127-1.019-9.574-1.223-24.85 2.851-32.59zm18.943-166.005c14.462-19.351 2.24-34.83-20.979-30.146-9.37 1.833-18.739 8.352-19.351 20.165-3.055.407-9.98.814-13.443 13.443-2.647 9.777-4.073 11.61-8.759 16.498-3.055 3.463.204 10.592 2.444 15.685 7.537 17.517 30.757 19.146 46.441 32.386 5.296-1.426 10.795-7.332 12.425-11.202-13.24-15.685-10.389-21.795-15.685-29.942 5.704-2.038 18.74-9.981 16.907-26.887z"/></g><path d="M191.364 90.795c.814-1.223 2.24-3.87 2.852-4.889.204-.204 2.444 3.666 2.648 3.463 5.499-8.963 6.925-21.999.61-23.221-1.426-.204-4.073-.814-6.314-1.63-4.073-1.426-7.739-1.426-14.258-.203-8.962 1.629-17.924 8.147-17.924 17.517 0 .611 6.313 2.444 8.147 9.981-3.056-4.278-8.352-8.963-14.666-4.889-6.722 4.277-3.259 14.054-12.221 24.238-3.056 3.463-2.648 7.537.61 15.684 5.296 12.833 30.35 19.758 43.997 31.979 3.259-1.426 5.499-4.685 7.129-7.129-9.166-9.573-12.833-18.536-15.48-25.054-3.259-7.536-6.926-11.813-14.055-17.518 3.667 1.426 6.519 2.852 8.147 4.074 1.833 1.222 4.481 1.426 6.926.611 8.76-3.053 13.445-15.275 13.852-23.014z" fill="#f0efef"/><path d="M279.968 94.054c-.611 7.74-6.314 3.87-9.369 2.444-6.111-2.648-12.222-4.481-19.351-4.481s-16.295.611-24.238 2.648c-10.999 3.055-14.259 2.852-19.147.407-4.888-2.648-13.442-9.166-13.442-9.166s-.204 2.037 1.833 4.685c2.647 3.259 8.555 7.333 16.498 9.98 3.87 1.223 6.926.407 10.389-.407 18.128-4.481 37.274-5.296 53.365 4.481.815.407 3.667-.815 4.889-2.648 1.628-2.647-1.427-7.943-1.427-7.943z" fill="#010101"/><path d="M187.291 171.658c1.629 1.019 3.666 1.63 5.906 3.463 0 0-1.833 0-2.647-.814-1.019-.611-3.056-2.444-3.259-2.649z" fill="#0a1825"/><path d="M246.156 10.135c-.611-1.833-5.093-5.093-15.48-5.093-11.203 0-14.462 3.463-14.665 5.296 0 .611-.815 7.13-1.019 9.777 0 0 0 3.259.203 8.147.204 3.259 1.019 5.092 1.426 9.37.407 4.48 1.63 7.332 3.87 10.999 1.019.61 1.833 1.222 2.852 1.426 4.074.814 11.203 1.018 15.073 0 2.24-.611 5.092-4.481 5.703-7.944.814-4.277 1.629-7.333 1.833-9.98.407-2.647.611-8.555.814-10.185.612-4.48-.407-11.406-.61-11.813z" fill="#f0efef"/><path d="M224.769 261.892s10.796 4.685 37.479.611c0 0-7.536 37.886-4.073 56.828 0 0 3.462 4.889 29.127 14.258 0 0 11.406 2.852 10.999 8.556 0 0 .407 1.222-13.443.814s-26.887-2.852-36.053-2.852-18.943.407-20.572-2.24c-1.833-2.444.407-8.759 3.055-12.426 2.853-3.869 2.037-6.722 1.834-13.646-.613-18.128-14.464-36.867-8.353-49.903z" fill="#010101"/><path d="M222.528 265.355c-1.426 2.037.203 9.776 2.24 17.313 2.037 7.536 6.519 12.018 7.537 24.442 1.018 12.221 1.222 13.851-2.241 20.979s-4.481 13.647 7.536 13.851 18.536-.204 30.757 1.63c12.222 1.833 16.499 2.444 23.221 1.426s8.147-3.26 5.296-5.296c-2.852-2.037-14.666-4.277-19.758-8.352-4.889-3.666-18.739-9.777-18.942-11.406-.611-5.5-.815-25.461.203-31.979 1.019-6.519 2.444-15.888 2.852-18.332s2.444-4.889-1.019-4.074c-3.462.814-16.498 2.648-26.275 2.037-9.777-.61-10.795-2.851-11.407-2.239z" fill="#8ac640"/><path d="M229.454 328.294c3.462 1.629 8.555 2.852 12.425 2.852 0 0-1.427 6.722.814 10.795 2.24 4.074-16.295 1.63-16.295 1.63l-.814-14.462zm53.977 17.517c3.259-1.019 5.5-4.685 2.852-8.147-2.852-3.463-5.296-4.074-1.63-4.277 3.667-.204 17.11 7.943 17.11 7.943l-6.926 6.314zm-61.514-72.513c4.685 1.63 11.814 2.037 17.925 1.833 6.11-.203 15.276-1.019 21.184-3.055 5.906-2.037 3.462 2.24 3.462 2.24l-3.259 3.056s-7.74 3.055-20.368 2.852c-14.869-.204-19.351-1.833-19.351-1.833zm.407 10.185c4.686 1.63 11.814 2.037 17.925 1.833 6.11-.203 14.258-.203 20.165-2.444 2.444-.814 1.019 2.648 1.019 2.648l-1.019 1.833s-7.944 2.852-20.369 2.647c-14.869-.203-17.517-1.426-17.517-1.426z" fill="#010101" opacity=".3"/><path d="M224.769 261.892s17.721 6.314 37.683 2.037c0 0-7.74 36.46-4.277 55.199 0 0 3.462 4.888 29.127 14.258 0 0 11.406 2.852 10.999 8.555 0 0 .407 1.223-13.443.814-13.851-.407-26.887-2.852-36.053-2.852s-18.943.408-20.572-2.24c-1.833-2.444.407-8.759 3.055-12.425 2.853-3.87 2.037-6.722 1.834-13.647-.613-17.924-14.464-36.663-8.353-49.699z" fill="none"/><path d="M224.769 261.892s17.721 6.11 37.683 1.833c0 0-7.74 36.664-4.277 55.403 0 0 3.462 4.888 29.127 14.258 0 0 11.406 2.852 10.999 8.555 0 0 .407 1.223-13.443.814-13.851-.407-27.091-4.277-36.053-2.852-9.573 1.63-18.943 1.019-20.572-2.24-1.426-2.647.407-8.759 3.055-12.425 2.853-3.87 2.037-6.722 1.834-13.647-.613-17.924-14.464-36.663-8.353-49.699z" fill="none"/><path d="M208.881 140.699c0 1.426 15.888 9.369 24.646 10.999 8.759 1.629 27.091 0 29.942-.611l-.408 2.852s-21.794 3.259-38.496-1.222c-16.703-4.481-14.869-5.5-14.869-5.5z" fill="#010101"/><path d="M174.865 314.443c2.444 1.223 11.203 3.463 16.906 2.241.814-.204 0-14.055 2.241-20.369 3.259-8.759 8.555-15.888 10.998-31.367-8.555-.815-18.331-3.056-23.424-4.686-6.517 19.962-4.276 37.071-6.721 54.181zm13.648 12.833c1.426.407 2.444 2.036 2.852 1.019.814-1.834-1.426-5.296-1.63-7.74v-.204c-1.833-1.629-14.258-1.833-13.443-1.019-1.426 2.648-3.666 2.241-4.48 7.537-.407 2.647 2.852.407 5.906.203-5.499 3.666-11.813 8.352-12.832 12.425-1.222 5.703.815 7.333 6.926 10.389 5.296 1.222 11.61 1.426 16.498 1.222 5.5-1.019 6.519-3.666 4.889-7.333-2.446-5.5-4.075-12.629-4.686-16.499z" fill="#f0efef"/><path d="M190.753 62.686c6.722 3.87 16.092 2.852 19.554 2.648.815 0 8.963-1.426 9.37-1.223.814.204.814.815.814.815s-3.055 1.629-9.98 2.036c-6.518.407-14.258 0-18.535-2.036-5.093-2.24-1.223-2.24-1.223-2.24zm69.254 3.87c1.222.814 9.166 3.87 12.629 7.536 3.055 3.26 1.426 3.056.814 2.241-.814-1.019-7.129-5.296-9.573-6.314s-5.5-2.852-5.5-3.259 1.63-.204 1.63-.204z" fill="#010101"/><path d="M189.734 151.086c5.907-.407 12.018 1.019 15.888 5.092 2.037 2.037 5.296 4.277 4.889 6.314 0 .611-1.223 2.241-2.24 3.463-.611.814-2.444 2.647-3.056 3.259-.814.611-3.666 2.852-4.277 3.259-.611.408-1.426 1.427-2.037 1.63-2.036 1.019-4.277.204-6.314-.814-2.036-1.019.408-1.223-1.833-2.852-5.499-3.87-8.555-6.519-6.314-14.055.203-1.426 2.443-3.056 5.294-5.296z" fill="#f0efef"/><path d="M137.795 104.442c-18.332 7.333-64.977 30.554-78.216 37.683 10.999 6.925 16.091 23.627 17.721 40.533.203 1.63.407 3.056.611 4.685.203 1.426.407 2.444.61 3.056 0 .204 0 .611.204.814 12.018-32.793 54.995-67.42 56.625-70.068.814-1.222-1.019-6.518 1.833-11.609 3.667-6.52 10.797-9.372.612-5.094zm43.589 153.784c9.369-18.739 9.573-36.664 9.369-57.644 0-8.759 6.314-21.184 3.056-17.721-12.222 13.646-42.978 39.312-65.18 40.737 31.164-1.018 43.385 14.666 52.755 34.628z" fill="#010101" opacity=".4"/><path d="M41.654 159.437c11.61-8.351 71.698-40.329 86.16-44.811 14.461-4.685 9.98-10.185 9.98-10.185s-58.662 25.257-93.696 47.052" fill="#010101"/><path d="M212.751 100.572c-4.685-1.833-8.351 3.667-7.129 8.963 1.223 5.296 12.222 11.202 11.61 30.553-.407 15.888-3.87 22.405-3.87 22.405l-7.74-9.776s-1.222-21.999-3.87-25.258c-2.647-3.259-10.999-9.166-14.258-12.221-3.259-3.056 3.666-7.129 3.259-12.833-.407-5.499 3.463-16.498 3.463-16.498zm28.313 86.77c-.407 15.276 3.056 37.886 4.481 48.682 1.426 10.795 3.259 11.61 0 16.499-3.259 4.685-7.536 12.425-7.536 12.425l-14.055-1.223s11.203-14.258 11.813-16.906c.611-2.647-5.703-22.812-5.703-22.812zm-27.09-142.58c2.852 6.313 6.314 9.165 11.813 10.999 3.259 1.222 16.091 2.852 21.184-2.852 2.24-2.648.814-9.777.814-9.777l-11.61 9.369-15.684-2.851-1.833-4.685z" fill="#010101" opacity=".4"/><path d="M215.195 58.816c5.296 3.463 18.536 6.722 22.202 7.333 3.666.814 9.573-3.87 12.425-5.092 3.056-1.426 8.352-2.241 14.462 3.259.611.611-1.426 3.259-1.426 3.259-.204-.204-1.426-.204-3.056-1.019-1.629-.814-3.055-1.426-5.499-1.222-10.185 1.222-11.814 4.685-20.776 2.647s-11.203-3.666-19.961-3.259" fill="#8ac640" stroke="#010101" stroke-linejoin="round" stroke-miterlimit="10" stroke-width="1.586"/><path d="M213.362 59.427c6.722 2.852 19.758 5.907 23.424 6.722s9.573-2.852 12.425-4.685c5.093-3.259 11.61-.611 14.666 2.852 2.036 2.24 2.852 3.666 2.852 4.277 0 .814-2.444 0-2.444 0-1.426-.611-3.056-.814-4.277-1.63-1.63-.814-3.26-2.036-5.703-1.833-10.185 1.223-12.222 4.685-20.98 2.648s-10.999-3.87-20.368-3.26" fill="#8ac640"/><path d="M181.791 249.67c-.407-.407.407-.814 0-.814-2.647 0-6.314-2.037-8.352-4.889-8.758-12.628-21.591-20.979-44.811-20.368-34.831.814-48.682-13.443-51.329-40.737-1.426-14.869-5.5-29.331-13.851-37.479l-4.889 3.056c9.369 8.147 12.425 21.387 14.462 39.515 3.259 27.294 25.257 39.923 50.922 40.33 26.683.407 36.256 5.907 46.236 19.351 3.259 4.277 6.926 5.703 9.777 6.314z" fill="#010101"/><path d="M276.302 118.7c.611 3.055 2.24 8.962 5.499 11.813 1.427 1.426 1.63 1.833.408 1.833-1.223 0-10.185-.407-10.185-.407l-2.444-4.277z" fill="#010101" opacity=".4"/></svg><svg viewBox="0 0 128 128" id="gulp" xmlns="http://www.w3.org/2000/svg"><path fill="#EB4A4B" fill-rule="evenodd" d="M36.965 35.459c.877 9.232 1.747 18.412 2.637 27.798 1.451-2.495 2.501-4.888 4.085-6.848 1.475-1.826 3.334-3.511 5.357-4.678 2.641-1.524 6.104-.089 6.96 2.614.23.725-.319 1.697-.511 2.556-.646-.341-1.479-.529-1.901-1.051-1.793-2.217-2.873-2.479-4.856-.563-3.699 3.576-5.779 8.056-6.573 13.091-.153.974.456 2.067.713 3.105 1.011-.348 2.185-.476 3.002-1.084 2.656-1.977 4.302-4.666 5.21-7.88.197-.696 1.265-1.145 1.933-1.708.32.658 1.05 1.433.897 1.954a373.814 373.814 0 0 1-4.536 14.429c-.162.484-1.051.725-1.604 1.079-.223-.636-.692-1.302-.617-1.901.168-1.358.605-2.683.91-3.927l-7.24 3.333c.405 4.622.825 9.807 1.323 14.985.382 3.954 1.029 4.978 4.923 5.728 4.544.875 9.173 1.434 13.792 1.774a60.391 60.391 0 0 0 20.23-1.904c2.472-.664 3.458-2.29 3.635-4.717.162-2.235.524-4.456.775-6.685.493-4.391.972-8.783 1.476-13.358-1.667 1.056-2.978 2.238-4.511 2.739-1.116.365-2.524-.169-3.803-.303.245-1.174.23-2.497.796-3.487.922-1.618 2.224-3.021 3.364-4.515l-.491-.591c-.817.483-1.832.8-2.413 1.485-1.182 1.394-2.339 2.886-3.13 4.52-1.324 2.735-2.333 5.622-3.518 8.426-.515 1.216-.959 3.076-2.684 2.366-1.845-.761-.547-2.386-.114-3.542.689-1.844 1.599-3.606 2.215-4.962-1.746.208-3.516.459-5.294.614-.752.064-1.646-.348-2.261-.07-2.045.924-3.341.553-3.766-1.711-.947.615-1.749 1.448-2.694 1.672-1.147.273-2.703.452-3.543-.121-.673-.459-.918-2.184-.688-3.196.457-2.012 1.311-3.946 2.122-5.859.502-1.185 1.007-3.077 2.701-2.253 1.674.813.154 2.185-.232 3.286-.599 1.702-1.209 3.401-1.813 5.101l.96.58c.914-.794 2.053-1.441 2.693-2.415 1.048-1.592 1.681-3.452 2.673-5.086.411-.677 1.296-1.065 1.967-1.584.136.862.462 1.748.354 2.58-.107.841-.698 1.61-.981 2.442-.425 1.246-.768 2.52-1.2 3.969 2.043.078 2.918-.782 3.495-2.299 1.826-4.793 3.672-9.581 5.679-14.3.343-.808 1.509-1.264 2.296-1.884.091.974.525 2.078.216 2.899-1.645 4.349-3.492 8.62-5.228 12.935-.293.727-.387 1.534-.572 2.304 3.059-1.375 5.612-2.895 6.544-6.146.228-.79 1.162-1.377 1.771-2.058l1.416 1.5c.43-.362.824-.774 1.291-1.075 1.47-.947 3.053-1.782 4.603-.315 1.604 1.517.39 2.995-.448 4.307-.912 1.431-2.029 2.73-3.057 4.086 2.312-1.49 5.469-2.158 5.889-5.378 1.024-7.865 1.924-15.746 2.837-23.625.271-2.332.416-4.679.627-7.109-18.21 4.409-36.029 4.436-54.088-.069zm7.816 61.369c.877 2.317 2.209 4.593 2.558 7.011.737 5.147.924 10.372 1.446 15.554.076.755.565 1.792 1.175 2.124 8.98 4.88 18.047 5.726 27.209.389 1.367-.796 1.62-1.847 1.797-3.325.857-7.181-1.051-14.798 3.54-21.56-12.856 3.189-25.403 3.288-37.725-.193zm30.991-60.08c4.362-.421 8.671-1.445 12.985-2.291.813-.159 1.535-.778 2.299-1.185-1.007-.885-1.878-1.311-2.788-1.418-4.53-.535-9.076-.947-13.603-1.508-.684-.085-1.905-.929-1.854-1.083 1.321-3.98 1.256-8.485 4.254-11.839 3.789-4.24 7.617-8.443 11.416-12.648-2.826-3.04-2.864-3.044-5.425-.383-1.448 1.504-2.771 3.15-4.342 4.512-5.813 5.038-9.896 11.005-10.692 18.872-.183 1.805-1.174 2.457-3.069 2.485-6.256.091-12.519.263-18.761.674-3.093.203-6.148.997-9.221 1.523l-.028 1.149c1.923.593 3.809 1.372 5.773 1.749 10.944 2.098 21.991 2.458 33.056 1.391zM72.276 34c-2.477 2-4.524 2-6.501 0h6.501z" clip-rule="evenodd"/></svg><svg fill="none" viewBox="0 0 124 141.532" id="html" xmlns="http://www.w3.org/2000/svg"><path d="M10.383 126.894 0 0l124 .255-10.979 126.639-50.553 14.638z" fill="#e34f26"/><path d="M62.468 129.277V12.085l51.064.17-9.106 104.851z" fill="#ef652a"/><path d="m99.49 41.362 1.446-15.49H22.383l4.34 47.49h54.213L78.81 93.617l-17.362 4.68-17.617-5.106-.936-12.085H27.319l2.128 24.681 32 8.936 32.255-8.936 4.34-48.17H41.107L39.49 41.362z" fill="#fff"/></svg><svg viewBox="0 0 64 64" id="idea" xmlns="http://www.w3.org/2000/svg"><path fill="#fff" d="M31.992 2a1 1 0 0 1 1 1v5a1 1 0 0 1-1 1 1 1 0 0 1-1-1V3a1 1 0 0 1 1-1zM15.024 15.448a1 1 0 1 0 1.415-1.414L12.902 10.5a1 1 0 1 0-1.414 1.414zM9 30.007l-5 .002a1 1 0 0 0 0 2l5-.002a1 1 0 0 0 0-2zm39.976 16.545a1 1 0 1 0-1.414 1.414l3.536 3.534a1 1 0 1 0 1.414-1.414zm-33.952 0-3.536 3.534a1 1 0 1 0 1.414 1.414l3.537-3.534a1 1 0 1 0-1.415-1.414zM60 29.992l-5 .001a1 1 0 0 0 0 2h.001l5-.002a1 1 0 0 0 0-2zm-11.742-14.26a.998.998 0 0 0 .708-.293L52.5 11.9a1 1 0 0 0-1.416-1.414l-3.534 3.537a1 1 0 0 0 .707 1.707zm-.873 22.383a17.976 17.976 0 0 0-.282-17.283 17.187 17.187 0 0 0-13.988-8.8h-.002a20.203 20.203 0 0 0-2.228 0 17.187 17.187 0 0 0-13.987 8.8 17.976 17.976 0 0 0-.283 17.283L23 50.247V55a7.008 7.008 0 0 0 7 7h4a7.008 7.008 0 0 0 7-7v-4.753zM25 54v-3h14v3zm-6.361-32.185a15 15 0 0 1 12.359-7.787 18.02 18.02 0 0 1 2.002 0 15.001 15.001 0 0 1 12.361 7.787 15.986 15.986 0 0 1 .255 15.369L39.396 49H33v-8.35a11.88 11.88 0 0 0 1.598.125 6.477 6.477 0 0 0 4.725-1.73c3.13-3.064 1.988-8.99 1.937-9.24a.996.996 0 0 0-1.176-.785c-4.3.86-6.837 4.937-8.084 7.664-1.247-2.727-3.784-6.804-8.084-7.664a.997.997 0 0 0-1.176.784c-.05.251-1.193 6.177 1.937 9.241a6.476 6.476 0 0 0 4.725 1.73A11.885 11.885 0 0 0 31 40.65V49h-6.396l-6.22-11.816a15.986 15.986 0 0 1 .255-15.369zm14.69 16.871c.756-1.958 2.708-6.08 6.12-7.405.165 1.827.057 4.785-1.525 6.335-1.008.984-2.55 1.345-4.595 1.07zm-2.659 0c-2.039.276-3.584-.084-4.59-1.067-1.685-1.645-1.672-4.705-1.523-6.336 3.408 1.327 5.358 5.447 6.114 7.404zM34 60h-4a5.008 5.008 0 0 1-4.899-4H38.9A5.008 5.008 0 0 1 34 60z"/></svg><svg viewBox="0 0 2499.9 2500" id="instagram" xmlns="http://www.w3.org/2000/svg"><defs><radialGradient id="la" cx="332.14" cy="2511.81" r="3263.54" gradientUnits="userSpaceOnUse"><stop offset=".09" stop-color="#fa8f21"/><stop offset=".78" stop-color="#d82d7e"/></radialGradient><radialGradient id="lb" cx="1516.14" cy="2623.81" r="2572.12" gradientUnits="userSpaceOnUse"><stop offset=".64" stop-color="#8c3aaa" stop-opacity="0"/><stop offset="1" stop-color="#8c3aaa"/></radialGradient></defs><path d="M833.4 1250c0-230.11 186.49-416.7 416.6-416.7s416.7 186.59 416.7 416.7-186.59 416.7-416.7 416.7-416.6-186.59-416.6-416.7m-225.26 0c0 354.5 287.36 641.86 641.86 641.86s641.86-287.36 641.86-641.86S1604.5 608.14 1250 608.14 608.14 895.5 608.14 1250m1159.13-667.31a150 150 0 1 0 150.06-149.94h-.06a150.07 150.07 0 0 0-150 149.94M745 2267.47c-121.87-5.55-188.11-25.85-232.13-43-58.36-22.72-100-49.78-143.78-93.5s-70.88-85.32-93.5-143.68c-17.16-44-37.46-110.26-43-232.13-6.06-131.76-7.27-171.34-7.27-505.15s1.31-373.28 7.27-505.15c5.55-121.87 26-188 43-232.13 22.72-58.36 49.78-100 93.5-143.78s85.32-70.88 143.78-93.5c44-17.16 110.26-37.46 232.13-43 131.76-6.06 171.34-7.27 505-7.27s373.28 1.31 505.15 7.27c121.87 5.55 188 26 232.13 43 58.36 22.62 100 49.78 143.78 93.5s70.78 85.42 93.5 143.78c17.16 44 37.46 110.26 43 232.13 6.06 131.87 7.27 171.34 7.27 505.15s-1.21 373.28-7.27 505.15c-5.55 121.87-25.95 188.11-43 232.13-22.72 58.36-49.78 100-93.5 143.68s-85.42 70.78-143.78 93.5c-44 17.16-110.26 37.46-232.13 43-131.76 6.06-171.34 7.27-505.15 7.27s-373.28-1.21-505-7.27M734.65 7.57c-133.07 6.06-224 27.16-303.41 58.06C349 97.54 279.38 140.35 209.81 209.81S97.54 349 65.63 431.24c-30.9 79.46-52 170.34-58.06 303.41C1.41 867.93 0 910.54 0 1250s1.41 382.07 7.57 515.35c6.06 133.08 27.16 223.95 58.06 303.41 31.91 82.19 74.62 152 144.18 221.43S349 2402.37 431.24 2434.37c79.56 30.9 170.34 52 303.41 58.06C868 2498.49 910.54 2500 1250 2500s382.07-1.41 515.35-7.57c133.08-6.06 223.95-27.16 303.41-58.06 82.19-32 151.86-74.72 221.43-144.18s112.18-139.24 144.18-221.43c30.9-79.46 52.1-170.34 58.06-303.41 6.06-133.38 7.47-175.89 7.47-515.35s-1.41-382.07-7.47-515.35c-6.06-133.08-27.16-224-58.06-303.41-32-82.19-74.72-151.86-144.18-221.43S2150.95 97.54 2068.86 65.63c-79.56-30.9-170.44-52.1-303.41-58.06C1632.17 1.51 1589.56 0 1250.1 0S868 1.41 734.65 7.57" fill="url(#la)"/><path d="M833.4 1250c0-230.11 186.49-416.7 416.6-416.7s416.7 186.59 416.7 416.7-186.59 416.7-416.7 416.7-416.6-186.59-416.6-416.7m-225.26 0c0 354.5 287.36 641.86 641.86 641.86s641.86-287.36 641.86-641.86S1604.5 608.14 1250 608.14 608.14 895.5 608.14 1250m1159.13-667.31a150 150 0 1 0 150.06-149.94h-.06a150.07 150.07 0 0 0-150 149.94M745 2267.47c-121.87-5.55-188.11-25.85-232.13-43-58.36-22.72-100-49.78-143.78-93.5s-70.88-85.32-93.5-143.68c-17.16-44-37.46-110.26-43-232.13-6.06-131.76-7.27-171.34-7.27-505.15s1.31-373.28 7.27-505.15c5.55-121.87 26-188 43-232.13 22.72-58.36 49.78-100 93.5-143.78s85.32-70.88 143.78-93.5c44-17.16 110.26-37.46 232.13-43 131.76-6.06 171.34-7.27 505-7.27s373.28 1.31 505.15 7.27c121.87 5.55 188 26 232.13 43 58.36 22.62 100 49.78 143.78 93.5s70.78 85.42 93.5 143.78c17.16 44 37.46 110.26 43 232.13 6.06 131.87 7.27 171.34 7.27 505.15s-1.21 373.28-7.27 505.15c-5.55 121.87-25.95 188.11-43 232.13-22.72 58.36-49.78 100-93.5 143.68s-85.42 70.78-143.78 93.5c-44 17.16-110.26 37.46-232.13 43-131.76 6.06-171.34 7.27-505.15 7.27s-373.28-1.21-505-7.27M734.65 7.57c-133.07 6.06-224 27.16-303.41 58.06C349 97.54 279.38 140.35 209.81 209.81S97.54 349 65.63 431.24c-30.9 79.46-52 170.34-58.06 303.41C1.41 867.93 0 910.54 0 1250s1.41 382.07 7.57 515.35c6.06 133.08 27.16 223.95 58.06 303.41 31.91 82.19 74.62 152 144.18 221.43S349 2402.37 431.24 2434.37c79.56 30.9 170.34 52 303.41 58.06C868 2498.49 910.54 2500 1250 2500s382.07-1.41 515.35-7.57c133.08-6.06 223.95-27.16 303.41-58.06 82.19-32 151.86-74.72 221.43-144.18s112.18-139.24 144.18-221.43c30.9-79.46 52.1-170.34 58.06-303.41 6.06-133.38 7.47-175.89 7.47-515.35s-1.41-382.07-7.47-515.35c-6.06-133.08-27.16-224-58.06-303.41-32-82.19-74.72-151.86-144.18-221.43S2150.95 97.54 2068.86 65.63c-79.56-30.9-170.44-52.1-303.41-58.06C1632.17 1.51 1589.56 0 1250.1 0S868 1.41 734.65 7.57" fill="url(#lb)"/></svg><svg preserveAspectRatio="xMinYMin meet" viewBox="0 0 256 256" id="js" xmlns="http://www.w3.org/2000/svg"><path fill="#F7DF1E" d="M0 0h256v256H0V0z"/><path d="m67.312 213.932 19.59-11.856c3.78 6.701 7.218 12.371 15.465 12.371 7.905 0 12.89-3.092 12.89-15.12v-81.798h24.057v82.138c0 24.917-14.606 36.259-35.916 36.259-19.245 0-30.416-9.967-36.087-21.996m85.07-2.576 19.588-11.341c5.157 8.421 11.859 14.607 23.715 14.607 9.969 0 16.325-4.984 16.325-11.858 0-8.248-6.53-11.17-17.528-15.98l-6.013-2.58c-17.357-7.387-28.87-16.667-28.87-36.257 0-18.044 13.747-31.792 35.228-31.792 15.294 0 26.292 5.328 34.196 19.247l-18.732 12.03c-4.125-7.389-8.591-10.31-15.465-10.31-7.046 0-11.514 4.468-11.514 10.31 0 7.217 4.468 10.14 14.778 14.608l6.014 2.577c20.45 8.765 31.963 17.7 31.963 37.804 0 21.654-17.012 33.51-39.867 33.51-22.339 0-36.774-10.654-43.819-24.574"/></svg><svg viewBox="0 0 256 256" id="linkedin" xmlns="http://www.w3.org/2000/svg"><g fill="none"><path d="M0 18.338C0 8.216 8.474 0 18.92 0h218.16C247.53 0 256 8.216 256 18.338v219.327C256 247.79 247.53 256 237.08 256H18.92C8.475 256 0 247.791 0 237.668V18.335z" fill="#069"/><path d="M77.796 214.238V98.986H39.488v115.252H77.8zM58.65 83.253c13.356 0 21.671-8.85 21.671-19.91-.25-11.312-8.315-19.915-21.417-19.915-13.111 0-21.674 8.603-21.674 19.914 0 11.06 8.312 19.91 21.169 19.91h.248zM99 214.238h38.305v-64.355c0-3.44.25-6.889 1.262-9.346 2.768-6.885 9.071-14.012 19.656-14.012 13.858 0 19.405 10.568 19.405 26.063v61.65h38.304v-66.082c0-35.399-18.896-51.872-44.099-51.872-20.663 0-29.738 11.549-34.78 19.415h.255V98.99H99.002c.5 10.812-.003 115.252-.003 115.252z" fill="#fff"/></g></svg><svg viewBox="0 0 600 476.3" id="mui" xmlns="http://www.w3.org/2000/svg"><path d="M0 259.8V0l225 129.9v86.6L75 129.9v173.2z" fill="#00b0ff"/><path d="M225 129.9 450 0v259.8l-150 86.6-75-43.3 150-86.6v-86.6l-150 86.6z" fill="#0081cb"/><path d="M225 303.1v86.6l150 86.6v-86.6z" fill="#00b0ff"/><path d="m375 476.3 225-129.9V173.2l-75 43.3v86.6l-150 86.6zm150-346.4V43.3L600 0v86.6z" fill="#0081cb"/></svg><svg viewBox="175.7 78 490.6 436.9" id="react" xmlns="http://www.w3.org/2000/svg"><g fill="#61dafb"><path d="M666.3 296.5c0-32.5-40.7-63.3-103.1-82.4 14.4-63.6 8-114.2-20.2-130.4-6.5-3.8-14.1-5.6-22.4-5.6v22.3c4.6 0 8.3.9 11.4 2.6 13.6 7.8 19.5 37.5 14.9 75.7-1.1 9.4-2.9 19.3-5.1 29.4-19.6-4.8-41-8.5-63.5-10.9-13.5-18.5-27.5-35.3-41.6-50 32.6-30.3 63.2-46.9 84-46.9V78c-27.5 0-63.5 19.6-99.9 53.6-36.4-33.8-72.4-53.2-99.9-53.2v22.3c20.7 0 51.4 16.5 84 46.6-14 14.7-28 31.4-41.3 49.9-22.6 2.4-44 6.1-63.6 11-2.3-10-4-19.7-5.2-29-4.7-38.2 1.1-67.9 14.6-75.8 3-1.8 6.9-2.6 11.5-2.6V78.5c-8.4 0-16 1.8-22.6 5.6-28.1 16.2-34.4 66.7-19.9 130.1-62.2 19.2-102.7 49.9-102.7 82.3 0 32.5 40.7 63.3 103.1 82.4-14.4 63.6-8 114.2 20.2 130.4 6.5 3.8 14.1 5.6 22.5 5.6 27.5 0 63.5-19.6 99.9-53.6 36.4 33.8 72.4 53.2 99.9 53.2 8.4 0 16-1.8 22.6-5.6 28.1-16.2 34.4-66.7 19.9-130.1 62-19.1 102.5-49.9 102.5-82.3zm-130.2-66.7c-3.7 12.9-8.3 26.2-13.5 39.5-4.1-8-8.4-16-13.1-24-4.6-8-9.5-15.8-14.4-23.4 14.2 2.1 27.9 4.7 41 7.9zm-45.8 106.5c-7.8 13.5-15.8 26.3-24.1 38.2-14.9 1.3-30 2-45.2 2-15.1 0-30.2-.7-45-1.9-8.3-11.9-16.4-24.6-24.2-38-7.6-13.1-14.5-26.4-20.8-39.8 6.2-13.4 13.2-26.8 20.7-39.9 7.8-13.5 15.8-26.3 24.1-38.2 14.9-1.3 30-2 45.2-2 15.1 0 30.2.7 45 1.9 8.3 11.9 16.4 24.6 24.2 38 7.6 13.1 14.5 26.4 20.8 39.8-6.3 13.4-13.2 26.8-20.7 39.9zm32.3-13c5.4 13.4 10 26.8 13.8 39.8-13.1 3.2-26.9 5.9-41.2 8 4.9-7.7 9.8-15.6 14.4-23.7 4.6-8 8.9-16.1 13-24.1zM421.2 430c-9.3-9.6-18.6-20.3-27.8-32 9 .4 18.2.7 27.5.7 9.4 0 18.7-.2 27.8-.7-9 11.7-18.3 22.4-27.5 32zm-74.4-58.9c-14.2-2.1-27.9-4.7-41-7.9 3.7-12.9 8.3-26.2 13.5-39.5 4.1 8 8.4 16 13.1 24s9.5 15.8 14.4 23.4zM420.7 163c9.3 9.6 18.6 20.3 27.8 32-9-.4-18.2-.7-27.5-.7-9.4 0-18.7.2-27.8.7 9-11.7 18.3-22.4 27.5-32zm-74 58.9c-4.9 7.7-9.8 15.6-14.4 23.7-4.6 8-8.9 16-13 24-5.4-13.4-10-26.8-13.8-39.8 13.1-3.1 26.9-5.8 41.2-7.9zm-90.5 125.2c-35.4-15.1-58.3-34.9-58.3-50.6s22.9-35.6 58.3-50.6c8.6-3.7 18-7 27.7-10.1 5.7 19.6 13.2 40 22.5 60.9-9.2 20.8-16.6 41.1-22.2 60.6-9.9-3.1-19.3-6.5-28-10.2zM310 490c-13.6-7.8-19.5-37.5-14.9-75.7 1.1-9.4 2.9-19.3 5.1-29.4 19.6 4.8 41 8.5 63.5 10.9 13.5 18.5 27.5 35.3 41.6 50-32.6 30.3-63.2 46.9-84 46.9-4.5-.1-8.3-1-11.3-2.7zm237.2-76.2c4.7 38.2-1.1 67.9-14.6 75.8-3 1.8-6.9 2.6-11.5 2.6-20.7 0-51.4-16.5-84-46.6 14-14.7 28-31.4 41.3-49.9 22.6-2.4 44-6.1 63.6-11 2.3 10.1 4.1 19.8 5.2 29.1zm38.5-66.7c-8.6 3.7-18 7-27.7 10.1-5.7-19.6-13.2-40-22.5-60.9 9.2-20.8 16.6-41.1 22.2-60.6 9.9 3.1 19.3 6.5 28.1 10.2 35.4 15.1 58.3 34.9 58.3 50.6-.1 15.7-23 35.6-58.4 50.6z"/><circle cx="420.9" cy="296.5" r="45.7"/></g></svg><svg viewBox="0 0 256 244" preserveAspectRatio="xMidYMid" id="redux" xmlns="http://www.w3.org/2000/svg"><path d="M177.381 169.733c9.447-.978 16.614-9.122 16.288-18.896-.325-9.773-8.47-17.592-18.243-17.592h-.651c-10.1.326-17.918 8.796-17.592 18.895.326 4.887 2.28 9.122 5.212 12.054-11.076 21.828-28.016 37.791-53.426 51.148-17.266 9.122-35.183 12.38-53.1 10.1-14.66-1.955-26.062-8.47-33.23-19.222-10.424-15.963-11.401-33.23-2.605-50.496 6.19-12.38 15.962-21.502 22.152-26.063-1.303-4.235-3.258-11.402-4.235-16.614-47.237 34.207-42.35 80.468-28.016 102.295 10.75 16.29 32.577 26.389 56.684 26.389 6.515 0 13.03-.652 19.546-2.28 41.699-8.145 73.299-32.905 91.216-69.718zm57.336-40.397c-24.759-28.995-61.245-44.958-102.944-44.958h-5.212c-2.932-5.864-9.122-9.774-15.963-9.774h-.652C99.848 74.93 92.03 83.4 92.355 93.5c.326 9.773 8.47 17.592 18.243 17.592h.651c7.167-.326 13.357-4.887 15.963-11.077h5.864c24.759 0 48.214 7.167 69.39 21.176 16.288 10.751 28.016 24.76 34.531 41.7 5.538 13.683 5.212 27.04-.652 38.443-9.121 17.266-24.432 26.714-44.63 26.714-13.031 0-25.41-3.91-31.926-6.842-3.583 3.258-10.099 8.47-14.66 11.729 14.009 6.515 28.343 10.099 42.025 10.099 31.274 0 54.404-17.267 63.2-34.533 9.447-18.896 8.795-51.474-15.637-79.165zM69.225 175.27c.326 9.774 8.47 17.592 18.243 17.592h.652c10.099-.325 17.917-8.796 17.591-18.895-.325-9.774-8.47-17.592-18.243-17.592h-.651c-.652 0-1.63 0-2.28.325-13.357-22.153-18.895-46.26-16.94-72.323 1.302-19.547 7.818-36.488 19.22-50.497 9.447-12.054 27.69-17.918 40.07-18.243 34.531-.652 49.19 42.351 50.168 59.618 4.235.977 11.402 3.258 16.289 4.887C189.434 27.366 156.857 0 125.584 0c-29.32 0-56.359 21.176-67.11 52.451-14.985 41.7-5.212 81.771 13.031 113.372-1.628 2.28-2.606 5.864-2.28 9.448z" fill="#764ABC"/></svg><svg viewBox="0 0 64 64" id="responsive-devices" xmlns="http://www.w3.org/2000/svg"><path fill="#fff" d="M64 36.55v-2.78c0-1.08-.88-1.97-1.97-1.97h-6.19v-8.17c0-1.31-1.06-2.38-2.37-2.38h-6.74V13.9c0-1.08-.88-1.97-1.97-1.97H1.96C.88 11.93 0 12.81 0 13.9v27c0 1.08.88 1.97 1.96 1.97h17.39l-1.03 2.64h-.25c-2.66 0-4.82 2.16-4.82 4.82v.77c0 .54.43.97.97.97h18.31c.54 0 .97-.43.97-.97v-.77c0-2.66-2.16-4.82-4.82-4.82h-.25l-1.03-2.64h8.12v2.75c0 1.31 1.06 2.38 2.37 2.38h14.09v2.11c0 1.08.88 1.97 1.96 1.97h8.1c1.08 0 1.97-.88 1.97-1.97V36.55zM53.47 23.2c.24 0 .43.2.43.44v1.47H37.44v-1.47c0-.24.19-.44.43-.44h15.6zM27.75 47.44h.92c1.52 0 2.78 1.19 2.88 2.69H15.19c.1-1.5 1.35-2.69 2.88-2.69h9.68zM20.4 45.5l1.03-2.64h3.87l1.03 2.64H20.4zm15.1-4.58-33.56-.03.03-27.02 42.83.03v7.36h-1.81v-4.78c0-.54-.43-.97-.97-.97H4.72c-.54 0-.97.43-.97.97V38.3c0 .54.43.97.97.97H35.5v1.65zm0-17.28v13.69H5.69V17.44h35.35v3.81h-3.17a2.392 2.392 0 0 0-2.37 2.39zm16.46 22.42H37.87c-.24 0-.43-.2-.43-.44v-.92h14.53v1.36zm0-12.28v8.98H37.44v-15.7h16.47v4.76c-1.08.01-1.95.88-1.95 1.96zm10.07 16.35-8.13-.03v-1.3h8.13v1.33zm.01-3.27h-8.13l.01-9.35h8.13l-.01 9.35zm.02-11.29h-8.13v-1.82h8.1c.01 0 .03.01.03.03v1.79z"/></svg><svg viewBox="0 0 512 384" id="sass" xmlns="http://www.w3.org/2000/svg"><path fill="#CF649A" d="M440.6 220.6c-17.9.101-33.4 4.4-46.4 10.801-4.8-9.5-9.6-17.801-10.399-24-.9-7.2-2-11.601-.9-20.2C384 178.6 389 166.4 389 165.4c-.101-.9-1.101-5.3-11.4-5.4s-19.2 2-20.2 4.7-3 8.9-4.3 15.3c-1.8 9.4-20.6 42.7-31.3 60.2-3.5-6.8-6.5-12.8-7.101-17.601-.899-7.199-2-11.6-.899-20.199 1.1-8.601 6.1-20.8 6.1-21.8-.1-.9-1.1-5.3-11.399-5.4-10.301-.1-19.2 2-20.2 4.7s-2.1 9.1-4.3 15.3C281.9 201.4 256.9 257 250.4 271.5c-3.3 7.4-6.199 13.3-8.3 17.3-2.1 4-.1.3-.3.7-1.8 3.4-2.8 5.3-2.8 5.3v.101c-1.4 2.5-2.9 4.899-3.601 4.899-.5 0-1.5-6.7.2-15.899 3.7-19.301 12.7-49.4 12.601-50.5 0-.5 1.699-5.801-5.801-8.5-7.3-2.7-9.899 1.8-10.5 1.8-.6 0-1.1 1.6-1.1 1.6s8.1-33.899-15.5-33.899c-14.8 0-35.2 16.1-45.3 30.8-6.4 3.5-20 10.899-34.4 18.8-5.5 3-11.2 6.2-16.6 9.1L117.9 251.9c-28.6-30.5-81.5-52.1-79.3-93.1.8-14.9 6-54.2 101.601-101.8 78.3-39 141-28.3 151.899-4.5 15.5 34-33.5 97.2-114.899 106.3-31 3.5-47.301-8.5-51.4-13-4.3-4.7-4.9-4.9-6.5-4-2.6 1.4-1 5.6 0 8.1 2.4 6.3 12.4 17.5 29.4 23.1 14.899 4.9 51.3 7.6 95.3-9.4 49.3-19.1 87.8-72.1 76.5-116.4-11.5-45.1-86.3-59.9-157-34.8C121.4 27.4 75.8 50.8 43 81.5 4 117.9-2.2 149.7.4 162.9c9.101 47.1 74 77.8 100 100.5-1.3.699-2.5 1.399-3.6 2-13 6.399-62.5 32.3-74.9 59.699-14 31 2.2 53.301 13 56.301 33.4 9.3 67.6-7.4 86.1-34.9 18.399-27.5 16.2-63.2 7.7-79.5l-.301-.6 10.2-6c6.601-3.9 13.101-7.5 18.8-10.601-3.199 8.7-5.5 19-6.699 34-1.4 17.601 5.8 40.4 15.3 49.4 4.2 3.899 9.2 4 12.3 4 11 0 16-9.101 21.5-20 6.8-13.3 12.8-28.7 12.8-28.7s-7.5 41.7 13 41.7c7.5 0 15-9.7 18.4-14.7v.1s.2-.3.6-1a36.13 36.13 0 0 0 1.2-1.899v-.2c3-5.2 9.7-17.1 19.7-36.8 12.899-25.4 25.3-57.2 25.3-57.2s1.2 7.8 4.9 20.6c2.199 7.601 6.999 15.9 10.699 24-3 4.2-4.8 6.601-4.8 6.601l.1.1c-2.399 3.2-5.1 6.601-7.899 10-10.2 12.2-22.4 26.101-24 30.101-1.9 4.699-1.5 8.199 2.2 11 2.7 2 7.5 2.399 12.6 2 9.2-.601 15.6-2.9 18.8-4.301 5-1.8 10.7-4.5 16.2-8.5 10-7.399 16.1-17.899 15.5-31.899-.3-7.7-2.8-15.3-5.9-22.5.9-1.3 1.801-2.601 2.7-4 15.8-23.101 28-48.5 28-48.5s1.2 7.8 4.9 20.6c1.899 6.5 5.7 13.601 9.1 20.601-14.8 12.1-24.1 26.1-27.3 35.3-5.9 17-1.3 24.7 7.4 26.5 3.899.8 9.5-1 13.699-2.8 5.2-1.7 11.5-4.601 17.301-8.9 10-7.4 19.6-17.7 19.1-31.6-.3-6.4-2-12.7-4.3-18.7 12.6-5.2 28.899-8.2 49.6-5.7 44.5 5.2 53.3 33 51.601 44.6-1.7 11.601-11 18-14.101 20-3.1 1.9-4.1 2.601-3.8 4 .4 2.101 1.8 2 4.5 1.601 3.7-.601 23.4-9.5 24.2-30.899 1.2-27.504-24.9-57.504-71.2-57.205zM97.4 336.3c-14.7 16.1-35.4 22.2-44.2 17-9.5-5.5-5.801-29.2 12.3-46.3 11-10.4 25.3-20 34.7-25.9 2.1-1.3 5.3-3.199 9.1-5.5.6-.399 1-.6 1-.6.7-.4 1.5-.9 2.3-1.4 6.7 24.4.3 45.8-15.2 62.7zm107.5-73.1c-5.1 12.5-15.9 44.6-22.4 42.8-5.601-1.5-9-25.8-1.101-49.8 4-12.101 12.5-26.5 17.5-32.101 8.101-9 16.9-12 19.101-8.3 2.6 4.801-9.9 39.601-13.1 47.401zm88.7 42.4c-2.2 1.101-4.2 1.9-5.1 1.301-.7-.4.899-1.9.899-1.9s11.1-11.9 15.5-17.4c2.5-3.199 5.5-6.899 8.7-11.1v1.2C313.6 292.1 299.8 301.7 293.6 305.6zm68.399-15.6c-1.6-1.2-1.399-4.9 4-16.5 2.101-4.6 6.9-12.3 15.2-19.6 1 3 1.601 5.899 1.5 8.6-.099 18-12.899 24.7-20.7 27.5z"/></svg><svg fill="none" viewBox="0 0 500 500" id="telegram" xmlns="http://www.w3.org/2000/svg"><path d="M250 500c138.071 0 250-111.929 250-250S388.071 0 250 0 0 111.929 0 250s111.929 250 250 250z" fill="#34aadf"/><path d="M104.047 247.832s125-51.3 168.352-69.364c16.619-7.225 72.977-30.347 72.977-30.347s26.012-10.115 23.844 14.451c-.723 10.116-6.503 45.52-12.283 83.815-8.671 54.191-18.064 113.439-18.064 113.439s-1.445 16.619-13.728 19.509-32.515-10.115-36.127-13.006c-2.891-2.167-54.191-34.682-72.977-50.578-5.058-4.335-10.838-13.005.722-23.121 26.012-23.844 57.081-53.468 75.867-72.254 8.671-8.671 17.341-28.902-18.786-4.336-51.3 35.405-101.878 68.642-101.878 68.642s-11.561 7.225-33.237.722c-21.677-6.502-46.966-15.173-46.966-15.173s-17.34-10.838 12.284-22.399z" fill="#fff"/></svg><svg viewBox="0 0 400 400" id="ts" xmlns="http://www.w3.org/2000/svg"><path d="M0 200V0h400v400H0" style="fill:#007acc"/><path d="M87.7 200.7V217h52v148h36.9V217h52v-16c0-9 0-16.3-.4-16.5 0-.3-31.7-.4-70.2-.4l-70 .3v16.4l-.3-.1zM321.4 184c10.2 2.4 18 7 25 14.3 3.7 4 9.2 11 9.6 12.8 0 .6-17.3 12.3-27.8 18.8-.4.3-2-1.4-3.6-4-5.2-7.4-10.5-10.6-18.8-11.2-12-.8-20 5.5-20 16 0 3.2.6 5 1.8 7.6 2.7 5.5 7.7 8.8 23.2 15.6 28.6 12.3 41 20.4 48.5 32 8.5 13 10.4 33.4 4.7 48.7-6.4 16.7-22 28-44.3 31.7-7 1.2-23 1-30.5-.3-16-3-31.3-11-40.7-21.3-3.7-4-10.8-14.7-10.4-15.4l3.8-2.4 15-8.7 11.3-6.6 2.6 3.5c3.3 5.2 10.7 12.2 15 14.6 13 6.7 30.4 5.8 39-2 3.7-3.4 5.3-7 5.3-12 0-4.6-.7-6.7-3-10.2-3.2-4.4-9.6-8-27.6-16-20.7-8.8-29.5-14.4-37.7-23-4.7-5.2-9-13.3-11-20-1.5-5.8-2-20-.6-25.7 4.3-20 19.4-34 41-38 7-1.4 23.5-.8 30.4 1l-.2.2z" style="fill:#fff"/></svg></svg>